<svg xmlns="http://www.w3.org/2000/svg" width="35.551" height="35.551" viewBox="0 0 35.551 35.551"><defs><style>.a{fill:#05aeed;}.b,.d{fill:none;}.b{stroke:#05aeed;}.c{stroke:none;}</style></defs><g transform="translate(-1576 -1070)"><path class="a" d="M18.364,15.662a.7.7,0,0,1,.238.574.734.734,0,0,1-.317.614l-1.94,1.94a.851.851,0,0,1-.614.277.73.73,0,0,1-.574-.277L7.474,11.109a5.167,5.167,0,0,1-3.069.257A5.464,5.464,0,0,1,1.613,9.841,5.688,5.688,0,0,1,.069,6.852,5,5,0,0,1,.544,3.585L4.267,7.228,6.8,4.693,3.158,1.05A5.32,5.32,0,0,1,6.4.635a5.58,5.58,0,0,1,3.01,1.524,5.461,5.461,0,0,1,1.524,2.791,5.026,5.026,0,0,1-.257,3.03Z" transform="translate(1584.912 1078.341)"/><g class="b" transform="translate(1576 1070)"><circle class="c" cx="17.775" cy="17.775" r="17.775"/><circle class="d" cx="17.775" cy="17.775" r="17.275"/></g></g></svg>