<svg xmlns="http://www.w3.org/2000/svg" xmlns:xlink="http://www.w3.org/1999/xlink" width="60" height="60" viewBox="0 0 60 60"><defs><style>.a{fill:#1a59a7;}.b{clip-path:url(#a);}</style><clipPath id="a"><rect class="a" width="60" height="60" transform="translate(1556 403)"/></clipPath></defs><g class="b" transform="translate(-1556 -403)"><g transform="translate(1548.898 395.896)"><path class="a" d="M41.723,32.32a1.015,1.015,0,0,0-1.015-1.015H32.9v-10.8a1.015,1.015,0,1,0-2.029,0V32.342a.955.955,0,0,0,.965.993h8.873A1.015,1.015,0,0,0,41.723,32.32Z"/><path class="a" d="M31.876,7.236A24.774,24.774,0,1,0,37.238,56.2a15.271,15.271,0,1,0,18.9-19.152A24.784,24.784,0,0,0,31.876,7.236Zm4.9,46.988A22.735,22.735,0,1,1,54.155,36.6,15.272,15.272,0,0,0,36.774,54.224Zm28.3-2.524A13.241,13.241,0,1,1,51.834,38.459,13.241,13.241,0,0,1,65.075,51.7Z"/><path class="a" d="M51.327,40.78,42.657,45.8a.991.991,0,0,0-.481.879V56.721a.991.991,0,0,0,.481.879L51.34,62.62a.99.99,0,0,0,.5.136,1,1,0,0,0,.5-.136L61.065,57.6a1.038,1.038,0,0,0,.532-.879V46.679a1.04,1.04,0,0,0-.533-.879L52.341,40.78a1.014,1.014,0,0,0-1.015,0Zm-.455,19.2L44.2,56.135v-7.7l6.667,3.849Zm8.7-3.849L52.9,59.984v-7.7l6.667-3.849ZM58.5,46.679l-6.667,3.849-2.4-1.388L56.1,45.291Zm-4.433-2.56L47.4,47.968l-2.233-1.289,6.667-3.849Z"/></g></g></svg>