<svg xmlns="http://www.w3.org/2000/svg" xmlns:xlink="http://www.w3.org/1999/xlink" width="60" height="60" viewBox="0 0 60 60"><defs><style>.a{fill:#1a59a7;}.b{clip-path:url(#a);}</style><clipPath id="a"><rect class="a" width="60" height="60" transform="translate(500 403)"/></clipPath></defs><g class="b" transform="translate(-500 -403)"><g transform="translate(497.039 400.038)"><path class="a" d="M11.074,55.239H34.9a12.745,12.745,0,1,0,9.527-17.58V18.284a.9.9,0,0,0-.264-.637L29.738,3.226a.9.9,0,0,0-.637-.264H11.074A4.512,4.512,0,0,0,6.567,7.468V50.732a4.512,4.512,0,0,0,4.507,4.507ZM46.612,39.273a10.932,10.932,0,1,1-2.856.376,10.932,10.932,0,0,1,2.856-.376ZM30,6.039,41.346,17.383h-8.64a2.707,2.707,0,0,1-2.7-2.7ZM8.37,7.468a2.707,2.707,0,0,1,2.7-2.7H28.2v9.915a4.512,4.512,0,0,0,4.507,4.507H42.62V38.11a12.754,12.754,0,0,0-8.344,15.326h-23.2a2.707,2.707,0,0,1-2.7-2.7Z"/><path class="a" d="M41.2,47.771a.9.9,0,0,0,.9.9h5.4a2.857,2.857,0,0,1-2.825,2.06H42.105a.928.928,0,0,0-.619,1.593l6.446,6.1a.9.9,0,0,0,1.275-.031.93.93,0,0,0-.036-1.3l-4.8-4.559h.313a4.783,4.783,0,0,0,4.682-3.863h1.752a.9.9,0,0,0,0-1.8H49.366a5.014,5.014,0,0,0-.952-2.06h2.7a.9.9,0,0,0,0-1.8H42.105a.9.9,0,1,0,0,1.8h2.579a3.015,3.015,0,0,1,2.825,2.06h-5.4a.9.9,0,0,0-.9.9Z"/><path class="a" d="M13.906,30.774h1.159V41.429a.961.961,0,0,0,.938.934h16.44a.934.934,0,0,0,.906-.934V30.774h1.159a.927.927,0,0,0,.9-.931V24.5a.93.93,0,0,0-.9-.934h-20.6a.93.93,0,0,0-.9.934v5.346A.927.927,0,0,0,13.906,30.774Zm17.64,9.786H16.868V30.774h3.605v5.035a.891.891,0,0,0,1.356.771l2.364-1.433,2.436,1.439a.858.858,0,0,0,.882.007.88.88,0,0,0,.432-.783V30.774h3.605Zm-9.271-6.351V30.774h3.863V34.23l-1.518-.91a.867.867,0,0,0-.906.005Zm-7.468-8.843h18.8v3.605h-18.8Z"/></g></g></svg>