<svg xmlns="http://www.w3.org/2000/svg" xmlns:xlink="http://www.w3.org/1999/xlink" width="60" height="60" viewBox="0 0 60 60"><defs><style>.a{fill:#1a59a7;}.b{clip-path:url(#a);}</style><clipPath id="a"><rect class="a" width="60" height="60" transform="translate(852 403)"/></clipPath></defs><g class="b" transform="translate(-852 -403)"><g transform="translate(849.596 400.596)"><path class="a" d="M3.206,37.56l5.7.549a23.842,23.842,0,0,0,2.9,6.9L8.18,49.392a.886.886,0,0,0,.056,1.192l6.029,6.029a.886.886,0,0,0,1.192.056l4.39-3.636a24.4,24.4,0,0,0,6.892,2.91l.549,5.68a.87.87,0,0,0,.882.782h8.547a.87.87,0,0,0,.882-.782l.549-5.69a23.828,23.828,0,0,0,6.9-2.9l4.384,3.633a.886.886,0,0,0,1.192-.055l6.029-6.028a.886.886,0,0,0,.056-1.191L53.071,45a24.4,24.4,0,0,0,2.91-6.892l5.624-.549a.886.886,0,0,0,.8-.882V28.131a.886.886,0,0,0-.8-.882L55.9,26.7A23.84,23.84,0,0,0,53,19.8l3.63-4.384a.886.886,0,0,0-.052-1.188L50.626,8.2a.886.886,0,0,0-1.2-.06l-4.39,3.636a24.4,24.4,0,0,0-6.892-2.91L37.6,3.187a.87.87,0,0,0-.882-.782H28.169a.87.87,0,0,0-.882.782l-.549,5.69a23.83,23.83,0,0,0-6.9,2.9L15.456,8.144a.886.886,0,0,0-1.192.055L8.235,14.227a.886.886,0,0,0-.056,1.191l3.636,4.39A24.4,24.4,0,0,0,8.906,26.7l-5.7.549a.886.886,0,0,0-.8.882v8.547a.886.886,0,0,0,.8.882Zm.971-8.624L9.71,28.4a.886.886,0,0,0,.781-.695,22.651,22.651,0,0,1,3.16-7.491.886.886,0,0,0-.062-1.045l-3.53-4.263,4.888-4.888,4.263,3.53a.886.886,0,0,0,1.057.055,21.985,21.985,0,0,1,7.48-3.153.865.865,0,0,0,.695-.762l.533-5.514h6.938l.533,5.514a.875.875,0,0,0,.695.772,22.634,22.634,0,0,1,7.491,3.155.886.886,0,0,0,1.046-.064l4.259-3.528,4.819,4.88L51.22,19.172a.886.886,0,0,0-.055,1.056,21.986,21.986,0,0,1,3.153,7.48.886.886,0,0,0,.781.695l5.533.533v6.939l-5.458.533a.886.886,0,0,0-.78.695,22.649,22.649,0,0,1-3.16,7.491.886.886,0,0,0,.062,1.045l3.53,4.263-4.888,4.888-4.263-3.53a.886.886,0,0,0-1.057-.055,21.984,21.984,0,0,1-7.48,3.153.865.865,0,0,0-.695.762l-.533,5.513H28.974l-.533-5.514a.875.875,0,0,0-.695-.772,22.633,22.633,0,0,1-7.491-3.155.886.886,0,0,0-1.046.065l-4.263,3.532L10.059,49.9l3.53-4.262a.886.886,0,0,0,.055-1.056,21.986,21.986,0,0,1-3.153-7.48.886.886,0,0,0-.781-.695l-5.533-.533Z"/><path class="a" d="M32.443,51.645A19.24,19.24,0,1,0,13.2,32.4,19.262,19.262,0,0,0,32.443,51.645Zm0-36.708A17.468,17.468,0,1,1,14.975,32.4,17.488,17.488,0,0,1,32.443,14.937Z"/><path class="a" d="M21.962,43.8H42.848a1.835,1.835,0,0,0,1.835-1.833V28.829a.885.885,0,0,0-.139-.475L40.4,21.861a1.826,1.826,0,0,0-1.548-.848h-12.9a1.826,1.826,0,0,0-1.548.848l-4.139,6.494a.885.885,0,0,0-.139.476V41.964A1.835,1.835,0,0,0,21.962,43.8Zm12.721-1.772H30.126v-8.45L34.683,35.5Zm-1.392-19.24h5.566c.022,0,.042.025.053.044l3.271,5.146H33.291Zm-7.392.044c.012-.018.032-.044.053-.044h5.566v5.19H22.628Zm-4,6.918H42.911V41.964a.061.061,0,0,1-.063.061H36.455V34.912a.877.877,0,0,0-.534-.817l-6.362-2.669a.863.863,0,0,0-.822.079.875.875,0,0,0-.384.738v9.782H21.962a.061.061,0,0,1-.063-.061Z"/></g></g></svg>