<svg xmlns="http://www.w3.org/2000/svg" xmlns:xlink="http://www.w3.org/1999/xlink" width="60" height="60" viewBox="0 0 60 60"><defs><style>.a{fill:#1a59a7;}.b{clip-path:url(#a);}</style><clipPath id="a"><rect class="a" width="60" height="60" transform="translate(148 403)"/></clipPath></defs><g class="b" transform="translate(-148 -403)"><g transform="translate(144.143 399.156)"><path class="a" d="M4.5,27.108V54.072a4.162,4.162,0,0,0,4.192,4.12h3.177a6.576,6.576,0,0,0,13.022,0H44.32a6.576,6.576,0,0,0,13.022,0h1.684a4.162,4.162,0,0,0,4.192-4.12V42.6c0-.008-.019-.015-.02-.022s-.02-.034-.021-.051,0-.028,0-.042,0-.032-.007-.048-.005-.029-.009-.043-.007-.03-.012-.045-.008-.028-.013-.043l-.016-.043L63.1,42.22c-.006-.013-.013-.028-.02-.041s-.013-.026-.021-.04l-.023-.038c-.008-.013-.017-.026-.026-.039l-.026-.034c-.009-.011-.021-.026-.032-.039l-.015-.018-8.318-9.039a4.143,4.143,0,0,0-3.061-1.323H42.189v-4.5a4.139,4.139,0,0,0-4.19-4.1h-.341a14.384,14.384,0,0,0,.663-5.288A15.039,15.039,0,0,0,33.862,8.03a14.7,14.7,0,0,0-20.541-.011,15.071,15.071,0,0,0-4.459,9.707,14.376,14.376,0,0,0,.663,5.286H8.689A4.141,4.141,0,0,0,4.5,27.108ZM50.83,62.027A4.726,4.726,0,1,1,55.556,57.3a4.726,4.726,0,0,1-4.726,4.726ZM42.189,33.46h9.368a2.282,2.282,0,0,1,1.7.717l6.894,7.483H42.189Zm0,10.051H61.366v10.56a2.308,2.308,0,0,1-2.341,2.268H57.341a6.576,6.576,0,0,0-13.022,0h-2.13ZM18.377,62.027A4.726,4.726,0,1,1,23.1,57.3a4.726,4.726,0,0,1-4.726,4.726ZM10.71,17.821a13.152,13.152,0,0,1,3.91-8.486,12.857,12.857,0,0,1,17.944,0,13.151,13.151,0,0,1,3.91,8.486,12.194,12.194,0,0,1-.768,5.113,13.473,13.473,0,0,1-2.963,4.6l-9.151,9.551-9.15-9.551a13.462,13.462,0,0,1-2.964-4.6,12.2,12.2,0,0,1-.768-5.112Zm-.44,7.043A17.567,17.567,0,0,0,13.1,28.841l9.819,10.234a.919.919,0,0,0,.669.278.929.929,0,0,0,.668-.289L34.08,28.842a17.568,17.568,0,0,0,2.834-3.979H38a2.286,2.286,0,0,1,2.339,2.244V56.34H24.888a6.576,6.576,0,0,0-13.022,0H8.689a2.309,2.309,0,0,1-2.341-2.268V27.108a2.288,2.288,0,0,1,2.341-2.244Z"/><path class="a" d="M20.891,21.044a.926.926,0,0,0,1.288.117l5.7-4.638a.926.926,0,1,0-1.168-1.436l-5,4.068-1.394-1.632a.926.926,0,1,0-1.408,1.2Z"/><path class="a" d="M23.592,27.615A10.019,10.019,0,1,0,13.63,17.6,10,10,0,0,0,23.592,27.615Zm0-18.187A8.168,8.168,0,1,1,15.481,17.6a8.148,8.148,0,0,1,8.111-8.168Z"/></g></g></svg>