<svg xmlns="http://www.w3.org/2000/svg" xmlns:xlink="http://www.w3.org/1999/xlink" width="60" height="60" viewBox="0 0 60 60"><defs><style>.a{fill:#1a59a7;}.b{clip-path:url(#a);}</style><clipPath id="a"><rect class="a" width="60" height="60" transform="translate(1204 403)"/></clipPath></defs><g class="b" transform="translate(-1204 -403)"><g transform="translate(1199.406 398.401)"><path class="a" d="M64.553,39.27c0-.015,0-.029,0-.044s0-.032-.007-.048-.006-.03-.009-.045-.007-.03-.012-.045-.008-.03-.014-.044-.01-.029-.016-.044-.011-.028-.017-.042l-.02-.042c-.007-.014-.014-.027-.022-.041s-.016-.026-.024-.039l-.027-.041-.026-.035c-.009-.012-.021-.027-.033-.039l-.015-.018-8.5-9.241a4.235,4.235,0,0,0-3.128-1.356H43.108V23.519a4.237,4.237,0,0,0-4.281-4.195H35a11.757,11.757,0,0,0-23.484,0H8.878a4.24,4.24,0,0,0-4.284,4.195V51.07a4.244,4.244,0,0,0,4.284,4.2h3.246a6.72,6.72,0,0,0,13.306,0H45.285a6.719,6.719,0,0,0,13.3,0h1.721a4.244,4.244,0,0,0,4.284-4.2V39.345c0-.008-.02-.016-.02-.023S64.554,39.287,64.553,39.27ZM23.262,9.991a9.876,9.876,0,0,1,9.865,9.865c0,.107,0,.215-.006.332a9.864,9.864,0,0,1-19.717,0v-.011c0-.106-.006-.214-.006-.321a9.876,9.876,0,0,1,9.864-9.865ZM18.777,59.2a4.828,4.828,0,1,1,4.83-4.829,4.828,4.828,0,0,1-4.83,4.829ZM41.216,39.345V53.378H25.431a6.72,6.72,0,0,0-13.306,0H8.878A2.351,2.351,0,0,1,6.486,51.07V23.519a2.347,2.347,0,0,1,2.392-2.3h2.7a11.757,11.757,0,0,0,23.362,0h3.884a2.344,2.344,0,0,1,2.389,2.3ZM43.108,30H52.68a2.33,2.33,0,0,1,1.734.733l7.045,7.645H43.108Zm8.83,29.2a4.828,4.828,0,1,1,4.828-4.828A4.828,4.828,0,0,1,51.938,59.2ZM62.7,51.07a2.352,2.352,0,0,1-2.392,2.308H58.59a6.719,6.719,0,0,0-13.3,0H43.108V40.27H62.7Z"/><path class="a" d="M26.224,23.924a.943.943,0,1,0,1.284-1.381l-3.318-3.1v-6.6a.946.946,0,1,0-1.892,0v7.011a.955.955,0,0,0,.309.691Z"/></g></g></svg>